/* XPM */
static char *_6850_4807631a54af119189019168b0edee50081ef5337d5e7f5cb0711c954eae950a[] = {
/* columns rows colors chars-per-pixel */
"50 50 132 2 ",
"   c #EF0200",
".  c #F10200",
"X  c #F00900",
"o  c #EF1B00",
"O  c #F21500",
"+  c #F31D00",
"@  c #F21214",
"#  c #F32401",
"$  c #F42A01",
"%  c #F1270F",
"&  c #F43100",
"*  c #F63900",
"=  c #F3312E",
"-  c #947A00",
";  c #997A00",
":  c #A37D00",
">  c #F44000",
",  c #F84403",
"<  c #F54C00",
"1  c #F55B00",
"2  c #F95C00",
"3  c #F74715",
"4  c #F76700",
"5  c #F77100",
"6  c #FA7401",
"7  c #FB7C02",
"8  c #F8760A",
"9  c #F7602E",
"0  c #F66D48",
"q  c #B58300",
"w  c #C88A00",
"e  c #D58E00",
"r  c #D69002",
"t  c #DD9300",
"y  c #DE9609",
"u  c #FB8302",
"i  c #F68F00",
"p  c #FA8D01",
"a  c #E19500",
"s  c #EA9701",
"d  c #EA9A01",
"f  c #EB9F0E",
"g  c #F59501",
"h  c #FC9500",
"j  c #F69A01",
"k  c #FA9C01",
"l  c #FC9808",
"z  c #F6A500",
"x  c #FAA401",
"c  c #F6AA01",
"v  c #FDAD01",
"b  c #F3A30E",
"n  c #FCA509",
"m  c #F6AB0A",
"M  c #FDAE0B",
"N  c #FDB401",
"B  c #FFBB00",
"V  c #FDB30C",
"C  c #FFBB0A",
"Z  c #FDA413",
"A  c #F6AB15",
"S  c #F9AD13",
"D  c #F6AE19",
"F  c #FAAF1B",
"G  c #FDB313",
"H  c #FFBA13",
"J  c #FDB51C",
"K  c #FFBD1C",
"L  c #FA8A26",
"P  c #F5AB20",
"I  c #F7B526",
"U  c #FCB620",
"Y  c #FFBB25",
"T  c #FEB72B",
"R  c #FDBB2C",
"E  c #F7B934",
"W  c #FCBD33",
"Q  c #F7BB3C",
"!  c #FCBD3A",
"~  c #FFC200",
"^  c #FFC20C",
"/  c #FFC214",
"(  c #FFC41A",
")  c #FFC324",
"_  c #FFC42D",
"`  c #FFC233",
"'  c #FFC936",
"]  c #FFC23B",
"[  c #FFCD3F",
"{  c #F9894A",
"}  c #FBA642",
"|  c #FBA24B",
" . c #FCBB43",
".. c #F9BF4A",
"X. c #FEC444",
"o. c #FFC943",
"O. c #FDC64C",
"+. c #FFCA4B",
"@. c #FFD04F",
"#. c #FAC554",
"$. c #FFCB53",
"%. c #FBC45C",
"&. c #FECC5C",
"*. c #FFD257",
"=. c #FFD25D",
"-. c #FCCC63",
";. c #FACC6B",
":. c #FFD264",
">. c #FFD36B",
",. c #FED374",
"<. c #FDD47C",
"1. c #FFD87D",
"2. c #FDD683",
"3. c #FFD984",
"4. c #FBD78D",
"5. c #FEDB8C",
"6. c #FDDC93",
"7. c #FFDE9A",
"8. c #FFE19E",
"9. c #FBDFA2",
"0. c #FFE2A5",
"q. c #FEE4AB",
"w. c #FFE6B2",
"e. c #FFE8B5",
"r. c #FCE7BA",
"t. c #FFEABD",
"y. c #FFECC3",
"u. c #FFEEC8",
"i. c #FFF0CF",
"p. c #FFF2D5",
"a. c #FFF3DC",
"s. c None",
/* pixels */
"s.s.s.s.s.s.s.s.s.s.s.s.s.s.s.s.s.s.s.s.s.s.s.s.s.s.s.s.s.s.s.s.s.s.s.s.s.s.s.s.s.s.s.s.s.s.s.s.s.s.",
"s.s.s.s.s.s.s.s.s.s.s.s.s.s.s.s.s.s.s.s.s.s.s.s.s.s.s.s.s.s.s.s.s.s.s.s.s.s.s.s.s.s.s.s.s.s.s.s.s.s.",
"s.s.s.s.s.s.s.s.s.s.s.s.s.s.s.s.s.s.s.s.s.s.s.s.s.s.s.s.s.s.s.s.s.s.s.s.s.s.s.s.s.s.s.s.s.s.s.s.s.s.",
"s.s.s.s.s.s.s.s.s.s.s.s.s.s.s.s.s.s.s.s.s.s.s.s.s.s.s.s.s.s.s.s.s.s.s.s.s.s.s.s.s.s.s.s.s.s.s.s.s.s.",
"s.s.s.s.s.s.s.s.s.s.s.s.s.s.s.s.s.s.s.s.s.s.s.s.s.s.s.s.s.s.s.s.s.s.s.s.s.s.s.s.s.s.s.s.s.s.s.s.s.s.",
"s.s.s.s.s.s.s.s.s.s.s.s.s.s.s.s.s.s.s.s.s.s.s.s.s.s.s.s.s.s.s.s.s.s.s.s.s.s.s.s.s.s.s.s.s.s.s.s.s.s.",
"s.s.s.s.s.s.s.s.s.s.s.s.s.s.s.s.s.s.s.s.s.g k k x k k k k s.s.s.s.s.s.s.s.s.s.s.s.s.s.s.s.s.s.s.s.s.",
"s.s.s.s.s.s.s.s.s.s.s.s.s.s.s.s.s.s.k n J T T U M v v x v x x k s.s.s.s.s.s.s.s.s.s.s.s.s.s.s.s.s.s.",
"s.s.s.s.s.s.s.s.s.s.s.s.s.s.s.s.k F -.7.w.w.0.6.,.! M v v v v x x k s.s.s.s.s.s.s.s.s.s.s.s.s.s.s.s.",
"s.s.s.s.s.s.s.s.s.s.s.s.s.s.k n &.y.a.i.y.q.0.5.2.>.W v v v v v v v x k s.s.s.s.s.s.s.s.s.s.s.s.s.s.",
"s.s.s.s.s.s.s.s.s.s.s.s.s.k n ,.a.a.u.e.0.7.5.1.>.-.X.N v v v v v v v v k s.s.s.s.s.s.s.s.s.s.s.s.s.",
"s.s.s.s.s.s.s.s.s.s.s.s.k v O.a.p.y.e.0.7.5.1.>.&.O.` N N N v N v v v v v k s.s.s.s.s.s.s.s.s.s.s.s.",
"s.s.s.s.s.s.s.s.s.s.s.k v M 7.p.y.w.0.6.3.,.:.$.o.] K N N v N v v v N v v v k s.s.s.s.s.s.s.s.s.s.s.",
"s.s.s.s.s.s.s.s.s.s.k v v M 7.y.q.0.6.1.,.:.$.o.` K N N N N N N N N v v v v v k s.s.s.s.s.s.s.s.s.s.",
"s.s.s.s.s.s.s.s.s.g x M ! ` &.q.8.5.1.>.=.$.o.` H N N N N N N N V V V V M v v v g s.s.s.s.s.s.s.s.s.",
"s.s.s.s.s.s.s.s.s.x Y 7.t.q.$.+.,.,.>.*.+.` ( C N B B N B N N H K R ` W Y G M v x s.s.s.s.s.s.s.s.s.",
"s.s.s.s.s.s.s.s.k J 0.u.e.0.,.V H K K K C B N B B N B B N N H ) ' +.&.$.+.W J V v k s.s.s.s.s.s.s.s.",
"s.s.s.s.s.s.s.s.x ,.y.q.8.6.>.V N B N B N B B B B B B B v 8 K ' *.:.>.:.&.+.W J M x s.s.s.s.s.s.s.s.",
"s.s.s.s.s.s.s.g J 9.q.8.5.3.+.N N B h h B B B B B B B B p % L } %.:.>.>.>.&.X.Y G n g s.s.s.s.s.s.s.",
"s.s.s.s.s.s.s.k  .0.8.3.1.>.) N B B 1 * x k B B B B x < # @ = 0 -.>.>.>.>.-.$.! K M x s.s.s.s.s.s.s.",
"s.s.s.s.s.s.s.x O.7.3.1.;.o.N N u < O . O 2 N ~ B ~ B p % @ = | :.>.>.>.>.-.&.X.Y S x s.s.s.s.s.s.s.",
"s.s.s.s.s.s.g x T 2.,.-.+.H N B k < . . # v ~ ~ ~ ~ ~ B * 3 9 { =.:.>.>.>.>.&.+.T G n g s.s.s.s.s.s.",
"s.s.s.s.s.s.g v v X.$.` C N N N B h O & # h ~ ~ ~ ~ ~ N u H _  .=.>.>.>.>.>.-.+.W J v g s.s.s.s.s.s.",
"s.s.s.s.s.s.g v v v M N N N N B B h 6 N k x ~ ~ ~ ~ ~ ~ ~ / ) o.*.>.>.,.>.>.-.+.W G M k s.s.s.s.s.s.",
"s.s.s.s.s.s.k v v v v v N N B N B B B B ~ ~ ~ ~ ~ ~ ~ ~ ~ ^ ( ' @.:.:.>.>.>.&.+.W G n j s.s.s.s.s.s.",
"s.s.s.s.s.s.g v v v N N N N N N B B B B ~ ~ ~ ~ ~ ~ ~ ~ ~ ~ ^ _ [ *.:.>.>.>.&.X.Y G v j s.s.s.s.s.s.",
"s.s.s.s.s.s.k x c v N v N N N B N B B ~ B ~ ~ ~ ~ ~ ~ ~ ~ ~ ^ ( _ @.=.:.>.:.+.] U M c j s.s.s.s.s.s.",
"s.s.s.s.s.s.g x x v v N N N N N B B B B B ~ ~ ~ ~ ~ ~ ~ B N u ^ ( _ o.$.*.#.] Y G n x g s.s.s.s.s.s.",
"s.s.s.s.s.s.g z z c c v N N N N N B B x h ~ ~ B B ~ ~ ~ ~ x # 6 l Z Y _ _ Y J S c z z g s.s.s.s.s.s.",
"s.s.s.s.s.s.s.k z z c c v N N N N B ~ 6 * v v N ~ ~ B v 2 $ . X $ i C V V V m c z z z s.s.s.s.s.s.s.",
"s.s.s.s.s.s.s.k z z z c c N N N N h 2 $ . + , v B B B B p # . . 4 N N N N c c z z z j s.s.s.s.s.s.s.",
"s.s.s.s.s.s.s.g z z z c c c c N N x <   . O h ~ B B B B B < # & < N N c c m m c z x g s.s.s.s.s.s.s.",
"s.s.s.s.s.s.s.s.z z z z z c c c N N z o o o u N B B B N ~ 5 a c d c N m U E I m z z s.s.s.s.s.s.s.s.",
"s.s.s.s.s.s.s.s.g x z z c c c N c N d 1 z g s B N N B N c ~ N c N c m _ %.;.#.D z g s.s.s.s.s.s.s.s.",
"s.s.s.s.s.s.s.s.s.z z z z c c c c N c c N N N N c B c N c c c ~ c m _ -.2.4.;.D z s.s.s.s.s.s.s.s.s.",
"s.s.s.s.s.s.s.s.s.g x z z z c c c c N c c c c N N c B c ~ c m m m m #.4.9.4...S g s.s.s.s.s.s.s.s.s.",
"s.s.s.s.s.s.s.s.s.s.j z z z c z c c c c N N c N c N c m ^ I I E ' ' -.4.4.%.F j s.s.s.s.s.s.s.s.s.s.",
"s.s.s.s.s.s.s.s.s.s.s.k z z z c z c c c c c c c c c m ) E ..*.<.2.<.-.#.X.D z s.s.s.s.s.s.s.s.s.s.s.",
"s.s.s.s.s.s.s.s.s.s.s.s.j z z z z c z c c c c c c D _ Q #.;.4.9.r.9.%.A f z s.s.s.s.s.s.s.s.s.s.s.s.",
"s.s.s.s.s.s.s.s.s.s.s.s.s.s z z z z c z c c c c m _ ..;.<.6.9.r.r.4.E f t s.s.s.s.s.s.s.s.s.s.s.s.s.",
"s.s.s.s.s.s.s.s.s.s.s.s.s.: e k x c z z z c z c m E -.<.6.9.q.9.<. .b e : s.s.s.s.s.s.s.s.s.s.s.s.s.",
"s.s.s.s.s.s.s.s.s.s.s.s.- - - q t j x z z z z z z D Q %.;.;.%. .P a q - - - s.s.s.s.s.s.s.s.s.s.s.s.",
"s.s.s.s.s.s.s.s.s.s.s.s.s.- - - - q r d z z x z z z m S A A f r q ; - - - s.s.s.s.s.s.s.s.s.s.s.s.s.",
"s.s.s.s.s.s.s.s.s.s.s.s.s.s.s.- - - - : q w e t a t t e w q : - - - - s.s.s.s.s.s.s.s.s.s.s.s.s.s.s.",
"s.s.s.s.s.s.s.s.s.s.s.s.s.s.s.s.s.s.s.s.s.s.s.s.; ; s.s.s.s.s.s.s.s.s.s.s.s.s.s.s.s.s.s.s.s.s.s.s.s.",
"s.s.s.s.s.s.s.s.s.s.s.s.s.s.s.s.s.s.s.s.s.s.s.s.s.s.s.s.s.s.s.s.s.s.s.s.s.s.s.s.s.s.s.s.s.s.s.s.s.s.",
"s.s.s.s.s.s.s.s.s.s.s.s.s.s.s.s.s.s.s.s.s.s.s.s.s.s.s.s.s.s.s.s.s.s.s.s.s.s.s.s.s.s.s.s.s.s.s.s.s.s.",
"s.s.s.s.s.s.s.s.s.s.s.s.s.s.s.s.s.s.s.s.s.s.s.s.s.s.s.s.s.s.s.s.s.s.s.s.s.s.s.s.s.s.s.s.s.s.s.s.s.s.",
"s.s.s.s.s.s.s.s.s.s.s.s.s.s.s.s.s.s.s.s.s.s.s.s.s.s.s.s.s.s.s.s.s.s.s.s.s.s.s.s.s.s.s.s.s.s.s.s.s.s.",
"s.s.s.s.s.s.s.s.s.s.s.s.s.s.s.s.s.s.s.s.s.s.s.s.s.s.s.s.s.s.s.s.s.s.s.s.s.s.s.s.s.s.s.s.s.s.s.s.s.s."
};
