/* XPM */
static char *_ff6da2201f544e0e8f9ec6216bbe604LgkF5CHnnGOZCuaV[] = {
/* columns rows colors chars-per-pixel */
"50 50 236 2 ",
"   c #020102",
".  c #0B0302",
"X  c #010B03",
"o  c #0D0A02",
"O  c #03050B",
"+  c #09060C",
"@  c #03090D",
"#  c #0A0A0C",
"$  c #110403",
"%  c #110A0A",
"&  c #160905",
"*  c #020513",
"=  c #060A14",
"-  c #090B14",
";  c #040C1B",
":  c #0A0E1B",
">  c #05051A",
",  c #170618",
"<  c #02111B",
"1  c #0C121D",
"2  c #151317",
"3  c #230A0E",
"4  c #030C23",
"5  c #0A0B24",
"6  c #010E29",
"7  c #0F0F29",
"8  c #130522",
"9  c #041124",
"0  c #0C1323",
"q  c #04142C",
"w  c #0C152B",
"e  c #041A2D",
"r  c #0E1A2D",
"t  c #081A26",
"y  c #111324",
"u  c #121A25",
"i  c #13152D",
"p  c #131A2C",
"a  c #1A1B2B",
"s  c #181824",
"d  c #041732",
"f  c #0C1631",
"g  c #001D33",
"h  c #0C1B34",
"j  c #0D1C39",
"k  c #09183B",
"l  c #141731",
"z  c #131C33",
"x  c #181A32",
"c  c #131D3A",
"v  c #1B1A36",
"b  c #201938",
"n  c #10202F",
"m  c #03213E",
"M  c #0C243C",
"N  c #012A3D",
"B  c #0D283D",
"V  c #092333",
"C  c #132236",
"Z  c #1A2236",
"A  c #14233C",
"S  c #19243D",
"D  c #1B2C3C",
"F  c #08232E",
"G  c #21253C",
"H  c #212437",
"J  c #0D1B46",
"K  c #171F43",
"L  c #0B2242",
"P  c #0D2B49",
"I  c #092946",
"U  c #152442",
"Y  c #1A2643",
"T  c #142A44",
"R  c #1B2A44",
"E  c #14214C",
"W  c #19244A",
"Q  c #132B4B",
"!  c #1C2C4B",
"~  c #14314C",
"^  c #1A314E",
"/  c #0F2F58",
"(  c #1B2D52",
")  c #162D56",
"_  c #0B3351",
"`  c #0D3B58",
"'  c #153553",
"]  c #1C3452",
"[  c #1C3955",
"{  c #14345B",
"}  c #1D345B",
"|  c #173A5D",
" . c #1B3B5C",
".. c #222B44",
"X. c #222B4D",
"o. c #282B4B",
"O. c #22314B",
"+. c #27324B",
"@. c #233553",
"#. c #223B54",
"$. c #2B3A56",
"%. c #22335C",
"&. c #243A5B",
"*. c #2A385C",
"=. c #1D3A62",
"-. c #1C3C68",
";. c #1D3D70",
":. c #233D63",
">. c #293A64",
",. c #343F6A",
"<. c #353D64",
"1. c #11435A",
"2. c #24435C",
"3. c #2B455A",
"4. c #32435D",
"5. c #1D4564",
"6. c #1B446B",
"7. c #154164",
"8. c #18566C",
"9. c #1C4A73",
"0. c #1E4675",
"q. c #1B5474",
"w. c #1A537B",
"e. c #0D4971",
"r. c #224265",
"t. c #22436B",
"y. c #2C456C",
"u. c #254E6B",
"i. c #2B4863",
"p. c #334965",
"a. c #29566B",
"s. c #254B73",
"d. c #2A4A72",
"f. c #2E4E78",
"g. c #234875",
"h. c #314E74",
"j. c #245674",
"k. c #2D5275",
"l. c #26537B",
"z. c #2D537B",
"x. c #295B7C",
"c. c #275A7C",
"v. c #31527A",
"b. c #355976",
"n. c #37556F",
"m. c #2A667B",
"M. c #1D5C85",
"N. c #2A5581",
"B. c #2E5A84",
"V. c #265785",
"C. c #335685",
"Z. c #335B8A",
"A. c #345989",
"S. c #3B5F99",
"D. c #1E6B8A",
"F. c #0B678C",
"G. c #2C6382",
"H. c #296689",
"J. c #35628B",
"K. c #3C668D",
"L. c #396688",
"P. c #30708C",
"I. c #2E6694",
"U. c #2F6A92",
"Y. c #306493",
"T. c #3D6F9B",
"R. c #376797",
"E. c #2A7298",
"W. c #34719C",
"Q. c #397A97",
"!. c #2D77A3",
"~. c #3C75A3",
"^. c #357AA5",
"/. c #3B7CA5",
"(. c #3E7EA9",
"). c #327AA7",
"_. c #3B72AB",
"`. c #415887",
"'. c #43759A",
"]. c #437A9C",
"[. c #477798",
"{. c #476E95",
"}. c #437BA3",
"|. c #4B7DA4",
" X c #457EAB",
".X c #4877A4",
"XX c #537FA4",
"oX c #456DA8",
"OX c #2D8FAC",
"+X c #3C81AB",
"@X c #3A8BAD",
"#X c #3582A5",
"$X c #3E8CB5",
"%X c #3A89B9",
"&X c #3592B4",
"*X c #42829D",
"=X c #4384AD",
"-X c #4C85AB",
";X c #448AAE",
":X c #4986A6",
">X c #5587A9",
",X c #4585B3",
"<X c #438EB4",
"1X c #4B8AB4",
"2X c #488BB9",
"3X c #4793B7",
"4X c #5293BB",
"5X c #539CBD",
"6X c #5994B8",
"7X c #558FAE",
"8X c #3CA4C1",
"9X c #499AC8",
"0X c #549AC4",
"qX c #6199C7",
"wX c #45A3C6",
"eX c #54A3CB",
"rX c #5BA7CD",
"tX c #5DACCD",
"yX c #58A8C6",
"uX c #57AAD3",
"iX c #57B7D6",
"pX c #67A5C8",
"aX c #63ACD4",
"sX c #6AB5D2",
"dX c #67B8DB",
"fX c #74BDDF",
"gX c #78AEDA",
"hX c #6BBCE2",
"jX c #62BFE1",
"kX c #4DC6DB",
"lX c #6DC5E6",
"zX c #74C5E7",
"xX c #72CAF0",
"cX c #6AC7F0",
"vX c #80D5F4",
"bX c #93EEFF",
/* pixels */
"                        O > : > 5 0 w d k j Q ! L L R $.M S M j z z 0 ; O O                         ",
"                        * : : : 0 0 f c U Y R R T U C U w h A A w w 0 1 ; O O                       ",
"                      O - 1 y y ; 0 x Y ! ! T T S h Y z f 9 p w r r w 0 : @ O                       ",
"                      @ - y y y 1 w S X.@.@.! T R A O.A Y p H i S C z 0 : - + O                     ",
"                    @ @ : 0 0 0 r C ! $.&. .] ~ T M ' J L j ..p A M r 0 1 1 * O           .         ",
"                    @ = 1 0 w w M ~ &.:.=.{ |  .u.u.B.B.z.r.] 6 f f r r p 1 = O X   O               ",
"                  O @ - 0 p p p P [ r.t.-.6.l.A.[.-X0XqX2X|.k.P D A f r 0 1 - O + +                 ",
"                    @ - u p z h 1.i.v.N.N.Z..X7XQ.+X_.%X!. XK.s.4.O.M 9 ; 1 : : .   X .             ",
"                  O 4 7 a a h J 6.`.>.9.E.wX%X_.(.Y.e.+XiXOXU.A.C./ M R n - - : = +         .       ",
"                  O 4 w a p c P s.f.A.Y.tXuX0X'.{.{.K.qXxXlX=X0.0.t.} h 1 a s * = =         O       ",
"                  * 4 r a x R | j.B..X,XhX1Xb.$.9 e j a.6XfXdX^.N.Z.h.T 4 y p O - +           O     ",
"                  O 9 z p x ] d.8.].,X0X/.u.; . X   O > ~ :XhXuX.XJ.h.2.A 9 1 : = O         .       ",
"                  O 9 z i w ! l.e.5XrX1X=.d   . o   % + 4 5.;XiX-Xc.6.y.@.r 0 p = +         .       ",
"                . * 9 z l q / g.D.tXsXj.M O   o .   o # O d c.tX1XI.9.-.( A u ; = @                 ",
"                o = 9 C c A  .B.3XiX7XF - . .   $   X X   * P :X4XW.V.-.( T p O = O O               ",
"                . * w R ..X.d.T.uXyX8.<   3   X .   X   + > 4 k.5XE.w.g.} U p t = @                 ",
"  X       X       ; v l 7 U c.3XcXQ.F O O                 O - 2 ,XtXq.y.,.=.B , + O O               ",
"                O ; v i 5 T V.$XxXG.t               .       + - W.sXP.:.>.` B , O O O O             ",
"                O ; z z w #.[.eXzX1.<     O       X . X     O O 9.sX=X) %.P T 7 + + O               ",
"O .           . O < M S n #.-XeXpXg @     #                     m 6X;X/ *.L B v + O O O             ",
"                  t A R r ~ ].$X[.*   o   O                     ; Q.;X;.p.T B K + O . O             ",
"                  0 C O.r ~ :X).b.*   &       +                 = m.$XB.<.D M W + O O O             ",
"          .     + : w R z #.>XW.2.= . . .                       X m.%XS.X.R L E + O .               ",
"                , : 4 R h ] XXM.O.1   . o       O                 a.%XS.l D T E + + O O             ",
"X           O   O * j J R ] >X X3.O .   O         .               n.,XE._ R Z 9 - *                 ",
".           O O O > h U Y Q '.(.3.O         . .                   p.~.~.{ S v 7 - O         . O     ",
"              O O ; h U U Q L.+Xp.*   . X   O .                 . #.I. X| c S k - @           .     ",
"              O   ; c Y R ^ L.2Xb.;     #                     X   @.Y. X' w ..J - O           O     ",
"            + O + ; M ! R ] N.4XL.9     %                     .   b.}. XQ l +.J - *                 ",
"              O + : f ! R ' 6.2X'.q   . o   O                 O < >X4X X' l $.U - @           .     ",
"            O   - ; q W Y [ | ,X6XB O   .   O               X . N pX9X=X1.p ..J - *                 ",
"            O O @ > 6 Y R &.` 1XgX[ -   .                   . O ` fX9X/.2.0 p j - O                 ",
"            X . # @ 5 U ( { 6.N.kXL.8 $   X X $ #     @ +     % F.zX-XL.Q 4 j A + O                 ",
"            +     O 4 c ( =.g.Z.8X|...+ X X X %   .       O 1 y &XhX:Xb.T q h r +                   ",
"            . +   O ; v ( =.s.B.#X4Xb.; O .   #   . o .   O j  .jXyXP.u.T R v w O O                 ",
"              X @ @ ; h W ] 5.l._.4X:XN * , .       $ &   O _ Q.lX#XG. .j o.Z 7 +                   ",
"                = = : r A ( =.s.S.,XsXm.6 , % X +     $   q m.dXrXw.j.~ 6 c i 5 O O                 ",
"                = : 0 0 z ! r.f.Z.+XlX5XP 4 - X     O O ; 5.;XsX1Xq.k.Q 9 i r 4                     ",
"                ; = 1 : 0 T >.v.B.W.yXdXW.` n X   @ * g 6.|.3X@X}.l.h.Y c p C ; O                   ",
"  .             * ; ; ; > h &.h.q.H.E.lXzX*X3.Z 2 = V z.0XaX<XD.J.s.:.j c p D ; +           . X     ",
"                O : : : w c R R j.6.B.~.hXbXyXH.oX,X$X9XiX0XT.A.Z.5.A r x x 0 *               O     ",
"                * - ; : 4 h A A r.v.B.W.&X3X#Xq.V.I.E.$X<X/.N.g.B.2.B p a z 0 @               .     ",
"                O > - ; 4 w f h P y.y.R.+X).3X}. X X X.XK.G.N.g.f. .C p l l 0 @                     ",
"                  + = : : 0 w f j W Q k.].=XqXqX1X'.K.f.=.:.d.t.:.^ z y i i : @                     ",
"                    + - : 9 w p A 6 c Q u.G.z.A.x.5. .%.E %.y.} ( S t 0 7 7 >     X                 ",
"                    O - 1 9 p z C 0 G c M _ J ) Q Q ] $.>.y.>.Q S p 0 1 5 5 *           X           ",
"                      @ - : 0 Z h z H Z r A Y o.l Y R Q @.$.W k p 0 < 1 5 5 *       .               ",
"                      + = = 1 n e H 2 s u t G i v +.A d P ] Q ! w 1 1 1 5 5 + .     O               ",
"                          O : 0 w z Y c U h *.Y ! A U X.Y A C r 1 : : > > +                         ",
"                          O : 0 f h A c U f $.Y M j T ! c f z p 1 1 : - + +                         "
};
