/* XPM */
static char *ca7be86aa23f46d5ec6a47c6c3f8598aRlYGik8jN9A8mg9g[] = {
/* columns rows colors chars-per-pixel */
"50 50 196 2 ",
"   c #000000",
".  c #0A0201",
"X  c #030901",
"o  c #0A0A02",
"O  c #02020B",
"+  c #0B020A",
"@  c #060B0C",
"#  c #0E0808",
"$  c #0B1300",
"%  c #191606",
"&  c #020212",
"*  c #0D0A12",
"=  c #090C1D",
"-  c #120C10",
";  c #081C19",
":  c #1C1C13",
">  c #171919",
",  c #281E0D",
"<  c #211C19",
"1  c #252200",
"2  c #31311A",
"3  c #0A1E27",
"4  c #0E202E",
"5  c #1C283E",
"6  c #16313C",
"7  c #092638",
"8  c #272123",
"9  c #382E2C",
"0  c #373C3D",
"q  c #252434",
"w  c #403D10",
"e  c #443F22",
"r  c #4D4E0A",
"t  c #666219",
"y  c #4B4739",
"u  c #666022",
"i  c #786F24",
"p  c #747026",
"a  c #0B2540",
"s  c #0F3353",
"d  c #13315A",
"f  c #1B395D",
"g  c #333541",
"h  c #1F3F78",
"j  c #153663",
"k  c #2F4157",
"l  c #1C4167",
"z  c #10517B",
"x  c #244364",
"c  c #3E5364",
"v  c #245276",
"b  c #2A4A7D",
"n  c #34667F",
"m  c #434541",
"M  c #464D45",
"N  c #5F5C4B",
"B  c #4A4251",
"V  c #534951",
"C  c #45585F",
"Z  c gray33",
"A  c #65595B",
"S  c #716E58",
"D  c #655D72",
"F  c #5E7376",
"G  c #626564",
"H  c #7E7D6B",
"J  c #6E6B74",
"K  c #787275",
"L  c #80791E",
"P  c #887C34",
"I  c #80801E",
"U  c #8A8927",
"Y  c #96922F",
"T  c #A19B29",
"R  c #9FA038",
"E  c #A9AE2D",
"W  c #B0AD2A",
"Q  c #BBC830",
"!  c #DADC1F",
"~  c #E5D919",
"^  c #E8E11F",
"/  c #C8C42A",
"(  c #D5CA20",
")  c #DAD829",
"_  c #C6D522",
"`  c #E4D527",
"'  c #E7D72E",
"]  c #E4D233",
"[  c #E5DD3C",
"{  c #EAE82C",
"}  c #EDE53A",
"|  c #FAEE36",
" . c #F3E927",
".. c #989341",
"X. c #918F5C",
"o. c #8C8358",
"O. c #83816A",
"+. c #949061",
"@. c #8C9075",
"#. c #9B9C7C",
"$. c #A3977D",
"%. c #BCBC62",
"&. c #A9A67B",
"*. c #EBE24A",
"=. c #F2F04E",
"-. c #DDD17B",
";. c #EDE17F",
":. c #114380",
">. c #185B8E",
",. c #1A5485",
"<. c #155A99",
"1. c #204F83",
"2. c #245185",
"3. c #2E5F8A",
"4. c #355E8D",
"5. c #265899",
"6. c #315591",
"7. c #3B4684",
"8. c #24649B",
"9. c #296496",
"0. c #3E739B",
"q. c #27628A",
"w. c #1F65AB",
"e. c #2563A2",
"r. c #2D64A5",
"t. c #3266A7",
"y. c #336CA5",
"u. c #2B74AB",
"i. c #3370A4",
"p. c #3A71A9",
"a. c #2D78B6",
"s. c #436C92",
"d. c #4A689A",
"f. c #57789B",
"g. c #857F83",
"h. c #5D8595",
"j. c #688C8A",
"k. c #6E8198",
"l. c #768A97",
"z. c #788484",
"x. c #5088A1",
"c. c #7791AE",
"v. c #938E88",
"b. c #9B9385",
"n. c #828C9C",
"m. c #A3A188",
"M. c #BCBD95",
"N. c #8C94AB",
"B. c #929CA5",
"V. c #9693B2",
"C. c #A5A7A6",
"Z. c #A9B4AE",
"A. c #B6B1AB",
"S. c #AAAAB5",
"D. c #ACB0B3",
"F. c #90ABB4",
"G. c #BEC7AA",
"H. c #AAC3BD",
"J. c #B6C1B3",
"K. c #DED787",
"L. c #CCC89B",
"P. c #E8DC86",
"I. c #F9EC9D",
"U. c #FFFC93",
"Y. c #CAC5A8",
"T. c #D8D4AE",
"R. c #DBD2B1",
"E. c #C7CDB2",
"W. c #E9E7A9",
"Q. c #F5EBAE",
"!. c #EBE9B5",
"~. c #E2E4BF",
"^. c #F5EAB4",
"/. c #F3F1BC",
"(. c #FBFABA",
"). c #F6F7B8",
"_. c #A0B1C3",
"`. c #C0BFC5",
"'. c #D0D2CB",
"]. c #DEDBCC",
"[. c #CFCFD9",
"{. c #D0DBD7",
"}. c #FAEACC",
"|. c #FFFFC2",
" X c #FEFCCF",
".X c #F9F5C5",
"XX c #E4E6D5",
"oX c #E9F1D9",
"OX c #F1ECD1",
"+X c #DEDAE2",
"@X c #E7DEE3",
"#X c #E4E9E6",
"$X c #FFFFED",
"%X c #ECF5F2",
"&X c #FCFFF2",
"*X c #FCFDFD",
/* pixels */
"                                    O   o O O X O O O         O                                     ",
"                                  O   O                 O                                           ",
"                                  O   O   O +   O     O O     O                                     ",
"                                  O X     O O   O   X O       O                                     ",
"                                  X O O X   X     X   O O     X                                     ",
"                                  O . X O O *   & O o     O                                         ",
"                                  O     8 % . r ,   .     X O                                       ",
"                                  O   . 2 ) L P Q r # O     O                                       ",
"                                X     : e / | ` '  .i < X O O                                       ",
"                                & o   + E ( ` ] ] ' { U + X   O                                     ",
"                                    O X Y  .~ ) ~ ` { W   X X O                                     ",
"                                O     . U ~ ' *.P.} *.T   O O                                       ",
"                                  o O O u } ) P.OXK.I....     +                                     ",
"                                X   O   . i =.Q.W.L.R.e O X                                         ",
"                                &   . O X O t ^.W.(.!.o &   O O                                     ",
"                                O .   X O . V ^.^..XN   X     O                                     ",
"                                  X   @ J B.h.Z.}.).A ; X . X O                                     ",
"                                O O . @. XoXF.V.j.G..XN.0 O &                                       ",
"                                O   O M..X].{.+Xc.d.4.h j.$ X                                       ",
"                                  X . H OX@X#XXX'.x.4.n.z.O   +                                     ",
"                                        v.XX#X_.6.>.b }.&.O X O                                     ",
"                                  . X . O 2 g x 8.u.<.f.$.  o                                       ",
"                                X       O X O s w.p.z c.o.  .                                       ",
"                                O O O X     + f t.i.<.l.b.&   X                                     ",
"                                . O X   O O ; 3.t.a.8.s.b.  X                                       ",
"                                      O     4 5.y.a.5.s.C.O O X                                     ",
"                                X + .     . a t.i.a.8.0.C.. O                                       ",
"                                  +     . X v 8.i.u.t.q.C . O                                       ",
"                                  O   X O 7 9.9.r.i.8.3.c . X                                       ",
"                                  . X   O f ,.2.5.2.e.4.a # X O                                     ",
"                                .     . = F H.k.j x <.k.G O   O                                     ",
"                                . X O   @ T.(.'.6 3 ,.J.S   .                                       ",
"                                  +     * T.).Y.$ O 7..X+.X . X                                     ",
"                                  O X   y /.(.y .   b h.k O   O                                     ",
"                                  O O O Y.|.Y.+     ,.>.d     .                                     ",
"                                O X   y .X!.Y.  X O ,.u.x O O X                                     ",
"                                X   o H (.(.m.  O   l <.j O O                                       ",
"                                  O O K XX].m O O   l.c.l.9   O                                     ",
"                                & O @ D.'.S.q X X X A.&X&XA X X                                     ",
"                                    0 *X*X#X-   +   K *X*XD X                                       ",
"                                  O Z *X*XA.  O     8 @X*XG O X                                     ",
"                                O   M *X%Xm O X   .   _.*XD.& .                                     ",
"                                O O v.*XS.O O   &     E.*X$X%.,                                     ",
"                                  % -.U.$..   +   X O : B X._ R o O                                 ",
"                                & 1 / ! i       O o +       .   O X                                 ",
"                                O O - % X X   O         X O O .                                     ",
"                                o   X O X   O O O   O X O   X O                                     ",
"                                      . +           O     O                                         ",
"                                                                                                    ",
"                                                                                                    "
};
