/* XPM */
static char *_141d9a03bf945cea9ab6663962ad8d6f7H1awfaviryz5JJ[] = {
/* columns rows colors chars-per-pixel */
"50 50 256 2 ",
"   c #3B2519",
".  c #35291C",
"X  c #382927",
"o  c #3D3731",
"O  c #48291A",
"+  c #532B1B",
"@  c #572B1A",
"#  c #4A331C",
"$  c #57371D",
"%  c #5F2807",
"&  c #642C1A",
"*  c #792D19",
"=  c #6D3C1D",
"-  c #67361A",
";  c #76371A",
":  c #4C2C23",
">  c #472C27",
",  c #562C26",
"<  c #4C3324",
"1  c #483629",
"2  c #533423",
"3  c #53352A",
"4  c #5C342B",
"5  c #533A2C",
"6  c #5C3C2C",
"7  c #5A3823",
"8  c #493835",
"9  c #5C3B33",
"0  c #563936",
"q  c #522E30",
"w  c #682C27",
"e  c #623426",
"r  c #643C24",
"t  c #6C3C24",
"y  c #63342B",
"u  c #633B2C",
"i  c #6B3C2C",
"p  c #6B3527",
"a  c #733525",
"s  c #743B23",
"d  c #733D2C",
"f  c #7B3827",
"g  c #643C32",
"h  c #6B3C33",
"j  c #6B3D3A",
"k  c #663735",
"l  c #733C33",
"z  c #793A37",
"x  c #7A2E2A",
"c  c #541B14",
"v  c #5E401E",
"b  c #6C421D",
"n  c #67431A",
"m  c #75421B",
"M  c #594327",
"N  c #5D4334",
"B  c #5C4539",
"V  c #564537",
"C  c #4F4A32",
"Z  c #634124",
"A  c #64432C",
"S  c #6C432C",
"D  c #694929",
"F  c #744223",
"G  c #74432D",
"H  c #7C432C",
"J  c #7C4C2B",
"K  c #784825",
"L  c #7C5129",
"P  c #644334",
"I  c #6B4434",
"U  c #64453A",
"Y  c #6C443A",
"T  c #654A3C",
"R  c #6C4C3C",
"E  c #684A33",
"W  c #734435",
"Q  c #7B4435",
"!  c #734B35",
"~  c #7C4B33",
"^  c #74453B",
"/  c #7B453B",
"(  c #744B3C",
")  c #7C4C3B",
"_  c #6D5235",
"`  c #66543B",
"'  c #7D5232",
"]  c #75533B",
"[  c #7A5539",
"{  c #663E42",
"}  c #5B4543",
"|  c #5D5145",
" . c #6A4A43",
".. c #734B43",
"X. c #784945",
"o. c #6C5343",
"O. c #675643",
"+. c #745444",
"@. c #7B5344",
"#. c #7C544B",
"$. c #7A5A4A",
"%. c #775947",
"&. c #6A5954",
"*. c #785751",
"=. c #7E6346",
"-. c #796957",
";. c #86371A",
":. c #80300B",
">. c #A63D1C",
",. c #833C2B",
"<. c #883925",
"1. c #953A2A",
"2. c #883C34",
"3. c #973D36",
"4. c #A23D29",
"5. c #A53D35",
"6. c #B13327",
"7. c #834325",
"8. c #8C4324",
"9. c #83442C",
"0. c #8B432B",
"q. c #83492D",
"w. c #8B4B2C",
"e. c #844826",
"r. c #95442C",
"t. c #934A2C",
"y. c #9B4528",
"u. c #88512D",
"i. c #96522C",
"p. c #824433",
"a. c #8C4435",
"s. c #854C35",
"d. c #8B4C34",
"f. c #844B3B",
"g. c #8B4C3B",
"h. c #88453B",
"j. c #934534",
"k. c #934C34",
"l. c #9A4A33",
"z. c #954C3C",
"x. c #9B4B3A",
"c. c #984338",
"v. c #855534",
"b. c #8C5235",
"n. c #84533D",
"m. c #8D533A",
"M. c #885B39",
"N. c #945334",
"B. c #9B5234",
"V. c #94533B",
"C. c #9B543B",
"Z. c #945A3C",
"A. c #9C5B3C",
"S. c #955B36",
"D. c #A64836",
"F. c #A25334",
"G. c #A3543B",
"H. c #A35B3D",
"J. c #AC5B3B",
"K. c #A85336",
"L. c #B4583A",
"P. c #A94930",
"I. c #9B623D",
"U. c #8D613B",
"Y. c #A7643B",
"T. c #9C441C",
"R. c #C75035",
"E. c #C2653C",
"W. c #883C41",
"Q. c #854A42",
"!. c #964D45",
"~. c #835443",
"^. c #8C5542",
"/. c #835C46",
"(. c #8B5A44",
"). c #835C4B",
"_. c #8C5C4A",
"`. c #89544B",
"'. c #935342",
"]. c #9C5C43",
"[. c #93514B",
"{. c #945C4A",
"}. c #9C5D4B",
"|. c #995546",
" X c #875C52",
".X c #965953",
"XX c #A44B42",
"oX c #A25543",
"OX c #A35A43",
"+X c #A55B4B",
"@X c #A95848",
"#X c #B55848",
"$X c #AA5C52",
"%X c #B1574F",
"&X c #886448",
"*X c #9C634C",
"=X c #976549",
"-X c #8C6353",
";X c #886858",
":X c #956452",
">X c #996858",
",X c #95725A",
"<X c #A36344",
"1X c #A4644C",
"2X c #AD644B",
"3X c #A36B4C",
"4X c #AB6B4B",
"5X c #AA6746",
"6X c #B4654B",
"7X c #B46B4A",
"8X c #B96649",
"9X c #A8744D",
"0X c #A46353",
"qX c #A46C54",
"wX c #A96A58",
"eX c #B26353",
"rX c #B86958",
"tX c #AD7353",
"yX c #A8755A",
"uX c #B27355",
"iX c #B6775A",
"pX c #BD724C",
"aX c #9A6A63",
"sX c #92776D",
"dX c #A76D64",
"fX c #A97867",
"gX c #B37B65",
"hX c #B97966",
"jX c #B17B72",
"kX c #C25E54",
"lX c #C75946",
"zX c #C56A57",
"xX c #C47959",
"cX c #CC6D4C",
"vX c #C57868",
"bX c #CE776A",
"nX c #9E8675",
"mX c #BA856A",
"MX c #BB8675",
"NX c #AA876F",
"BX c #C7855E",
"VX c #C7886A",
"CX c #D6886A",
"ZX c #DA966D",
"AX c #C88875",
"SX c #D58B78",
"DX c #C89378",
"FX c #D5957C",
"GX c #C8A178",
"HX c #B29388",
"JX c #C79984",
"KX c #D79987",
"LX c #DA9D98",
"PX c #EE998A",
"IX c #D3A58C",
"UX c #E1A897",
/* pixels */
"e N c : 6 e E A e M i d ` 3 p $ 7 i 4 + 4 A 7 6 C 7 2 D t = M O $ + M # # 7 P M , 1 + u 9 , w > 1 1 ",
"f.:X) f.Q @ G n.@ Q n.! aX@.~.tX{.^.:X~ -XaXI ] aXR Q.[.z .X[.W 0Xh.z [.z h X.k &.sXV > 9 q 8 &.o 8 ",
"s.G.G j.D.F 1.*Xp.D.oXs $X|.}.PX0Xd.0Xs.0XDX=XdX0XJ 5XlXi.xX8X].pX8XK.xXH.<.k.<./.AX[ M z.f M ^.~ f.",
"9 k y l `.@.w Y Z s q.Z t I 7 Z.&X7 ' ! ! &X] _ +.` ,X>X=.%.! M 7 [ E ] A A _ A 6 ..P N Q.^ : 4 4 6 ",
"& r OXA.4X6XF V.*X' =X1X7 ,X=Xv.mXZ.}.SXhXqXgXg.@.$XhXgXhXg.&X`.Q.>X.Xh  X>XaXjX X< +.~.@.:X/ U :X).",
"; b K.N.i.J.v.<XbX<X#X#Xf vXzX6XvX].@XFXVXvXKX0X7.P.G.5XcXD.uXvXrXiXeXj.vXbXiXbXrX$ m.oXv.}.l.Z *X}.",
"} 0 q g 0 3 } } p J H q.) [ J Z.=.D _ D ! %._ D R u 7 ( h g #...$.#.P g ......R  .q 3 6 g y : > 0 q ",
"Q z.; 8XJ.b eX' D iX=X[ MX-XU.KX3X1XAXa.a.rXf 0XmXM.b.iX[ gXhXf.uXhXZ.A.7.V.iX<Xh 0XI A !.9.A g.u h ",
"p p.8.xX8X;.5XA.B.pXpXB.VX*XB.CXtXC.tXe.<XtXv.1XVXuXA.mXS.Z.iXq.uXZXC.l.H.t.4XuXf.$XZ.v.8Xx.s.@Xd.d.",
"o 5 P R %.%.+.o.$.R E E > 1 %.@.Y P u i ( .., 0 ....Y A A 2 U T P #.y , Y W Y P 9 Y U 3 X.4 > 4 9 6 ",
"^ l yX:XiXAX{.>XmXuXqXqXG qXMXmX,X:Xs.qX}.:X.X~ ^ gXmX:XDX_.>XfX_.:XqX^.*XAXfXqXMX#.>X:X>X;Xz + _._.",
"z.,.rX6X6XrXl.oXB.F.J.H.w.rX2XzX4XA.e.H.8.k.2X7.p.hXwX].VXV.yXiXuXuXhX].V.hXmX4XVXM.A.+X-X:X|.O mXmX",
"+.9 I I O + ! 2 M _ ' [ ] R W ! I _.(.s H d Q `.^ i / G / Q ~.^ ~.W W / y W _.~ g.=.u y O.: j 0 B  .",
"{.>X'.(.H (.MX(.,XUXqXtXDXg.<X7Xs mXDXZ.mX0Xp.DXqX- wX1Xb.wXs.~ iXV.p.yX*Xs.1XA.].KXM.Q NX( l `.g U ",
"* oX@XOXl.C.+X<.&XFXG.K.bXP.K.E.M.iXiXY.VX4X9.iXyXu.uXOXi.H.0.].ZXuX1XVXrXS.5XF.5XSX].v.DX:Xv.d.F ~ ",
"7 ;XnX;X%.U   : o o V P T #.n.M.nXo.o.,X-X;X#.U  .-XaX:X>Xy 4 #.(.Q.#. XY #.,X:X%.j B C X.o.&.j > , ",
"] SXAXSXbXMX&XLXJXKXKXMXf.IXDXCXKXdX~.AXvXvXAXwX-.MXAX9XiXD D AXgXgXIXfX4 NXMXMXgX&X~.fX>XdXHXaXi [.",
"n I.H.H.2XiX! fXmX9X3Xu.~ mXtXY.3XZ.s.=XY.S.uXv.Q eX%XG.#X0.f eXJ.J.2X4X7.OXOXJ.vXS.w.C.OXrXiXV.* T.",
"o.T 7 h N o.O.V C < 2 2 O.T P S < 3 -.3 6 W  XB j 9 9  .} j k 3 - t r ;XaX$.:X,X .N O.3 : 4 : V 2 : ",
"vX=X<.#X[ =XPX{.hXVX1XtXjXf.1XCX0X*XUXV.0.6XC.d.cXu.J =XF C.6XK B.5XA.gXAX3XuXZXfX>XfXn.'.0XH ^. XU ",
"@Xs.<.D.L &XbX=XrXiXx.V.:X^.C.rX*Xg.0XV.B.7XB.d.R.m e.OXa 1.D.b.1.x.j.c.%XeX#XbXwX1XhX|.+XrX,.'.+XH ",
"P +._.^ -.;XT sX;X,XNX;X-.HX-X>XHXsX6 sXNX*X>X+.X.sXsXnXsX*.9 ;X X)...9  .;X) [ 6 5 O.E 9 g < 5 ( Y ",
"F C.@XF.zXBXM.VXZXCXZX9XM.mXtXpXVXmXF VXBXcXZXBX$.DXJXMXGX>X! yX3X*X=XM.I.mXuXiX9XL K U.Z.1X=XD 1XwX",
"E D.<.l.D.k.=XhXwX4XA.3Xf.^.+Xl.'.wXs.j.y.K.8XH.>XzX#X0.K.d.g.XXXXG.j.z.<.$X#X#XzX!.<.$XXX!.eX2.w.C.",
";Xp.p h a.g.NXiX+X=Xf.[.).i 2.$.3 #.jXj o.nX X/ :Xg.~ ` @ ..O.3 5 N O 5 V # P W G T C d , C i O.! O ",
"y.;.t.5X7XF.L.E.Y.8XY.m.3X3X9XZ._ =XAXtX9XGXiXA.wXz Q.>Xj aXHX*.w.V.p.d.=Xs d.D.2.[.[.z 2.W./ aX-XP ",
"4.H ; ; D S.P.L.6X#X|.s.XX'.=Xa.s.z.j.!.f '.c.* P.m 8.J.n ].bXM.1.3.3.3.XX2.3.XX7.D.L.b D.6.; B..Xz ",
"2.(.n.d D >XG.}.m.z.m.! e W &X X;X-X+ ] @.:XaX>X@ [ *X*X=.&XW ` ~ / ) W P +.#.`.M D r M /.^._ E P 6 ",
"- t.5X2XK.K.9.<XL.BXxX6X; 4XxXiXmXmXF <X1XOX}.]., $XjXfXhXdXw .XY.Y.A.A.= =X*XC.:X@.< !.!.@.[.W m.{.",
"# f a.0.1.<.D n.y.B.D.y.- x.D.k.C.wXp.*X!.!.a.g.~ j.S.S.D.G.= x.P.XXD.!.,.|.C.3.eX_.$ 5.<.t 5.,.a.z.",
"I W d Q f.Q.)...I 6 U ( $.).W [ ) +.-.%.2 y N 1 -.T # W G G R ^ S ~.h R ;X .I ..3  .B 4 y k j  X_ v ",
"J.7.8.J.3Xt.8X2Xb.1.}.p.8X@XN.P.y.8.uX<X;.F.OX; 0X(.;.cX7XK.#Xl.V.uXd.s.JX' s C.M {.hXM V.D.t 1XhXa ",
"1.D.- s s.F c.OXH <.,.= r.G.u.c.f * N.d.f k.g.f y.N.w.C.&Xl.P.r.<.b.t t &XQ <.r.* OXrXw.w.<XH 0.k.s ",
"5 < 2 6 R +.B B +.R R I N R @.R +.%.+.%.%.%.&X;X` R A A G & O O.%.*.| C o B R $.`.h 7 7 Y .. .g I P ",
"Z.= 1.G.6XzXM.F #XuXrXzXb.c.zX].2XeXj.OXvXeXrXvXqXlXlXL.R.P.H AXKXmXjX,Xe :X}.wX:X~.n.dXn.i >X-Xx.].",
"|.d 2.a.'.+X~.g.8.A.F.F.w.7.t.7.w.N.; w.I.w.7.S.t.4.>.>.R.>.; 2XkX#XoX+X0.2XG.J.^.s.V.tXZ.s.>X) w.r.",
"p.V.D t Z v d.qXi s.) i f.Q.6 ^ R I ( I u r 7 g ) S - 9.K r h 3 K ~ S ] /.! D ~ I u W I I ( I 6 o X ",
"T.lXL w.S.m 4.L.d !.+Xg.c.a.i wX}.p.'.g.z '.h.p.kX}.z.OXM.m.%Xf A.wX].Z.iXH s.1X! ~ qXb.H H @ ~.O.5 ",
"x z y j ..j w w - b q.v.; % - J v.s = = F u.J = t.m ,.7.H q.a.; 8.k.t.;.6Xr.l.6Xb.u.5Xl.w.k.; H g.9.",
"I # z y + w E ). X5 e .X#.W s.+ Y `.^ ^ j + y g M u T 9 z X.B =.5 > <   T T < V 9 u X.e @ ^ g 9 4 3 ",
"3.<.x.0.& ^.=X1X1XA.9.6XzXzX3.;.t %X{.).!.f.D AXrX=XgX!.).qXhXgX` F G.j.H /.' F (.V.z.Q 7 P -X'.)._.",
"& a ,.* & ) p ,.m.' - ; * 7.* % ; z.'.{.2.d ~ *Xi.I.I.; m u.K.i.G * D.1.j.s.* D.i.y.K.t.; e.].G.H.H.",
"> 7 r - ) ~.& ,.Y ..@.Y j >Xg.I ..0 , X.0 .. X3 D `.@.N @.@./.s.} ..h O }  .q X.d u ] A + u A N U U ",
"4 l p x [.[.2.G.1.i.7XH.K.cXF.8.H.J <.G.K b.rXL a.K.d.M.@X2.7.3.q.4X5XM.yXfXw.r.l.w.=XJ ; <.a A i p ",
"q : + @ 6 4 7 D H F M.Z F n.F n ,.- - <.- s z.F G z.G ] z.a Z j.<.r.t.F Q f 8.#XXXj.*Xa.1.5.x l h p ",
"5 O 7 7 <   2 M 8 X o X > 0 8 } 8 X > q V 8 q o < T 8 1 1 8 V  .0 9 0 5 8 0 g g > > 5 + : , X X . . ",
"x <.2.2.2.l h.x.oX!.V.g.+X|.+X+X! s.tX*X}.V.v.m.J.5XI.i.F b.k.S.,XyX&XD @.>XyXI.Z L u.N.u.L i S &X&X",
"  # $ @ u : h ~ f a = F d.0.C.N.b.r.iXI.#X6XM.r.P.8.y.y.f j.1.z.l.A.d.d.+X|.k.i.& 2.1.5.0.a x x x z ",
"N r 2.r 2 z 7 , = U S v.5 2 t : M !.M 2 A M D ; $ a u O I N #  .W   S d # g 4 1 O 7   : +   ,     > ",
"h i c.t 7 z y 7 d.).^.*X .I d.Y [ $X! ! _.@.].H.^.}.=XR >X Xo.aX-XM /.n.2 P k V nX:XM # : 1 j 5 > 3 "
};
